<?xml version="1.0" standalone="no"?>
<!DOCTYPE svg PUBLIC "-//W3C//DTD SVG 20010904//EN"
 "http://www.w3.org/TR/2001/REC-SVG-20010904/DTD/svg10.dtd">
<svg version="1.0" xmlns="http://www.w3.org/2000/svg"
 width="1024.000000pt" height="1536.000000pt" viewBox="0 0 1024.000000 1536.000000"
 preserveAspectRatio="xMidYMid meet">

<g transform="translate(0.000000,1536.000000) scale(0.100000,-0.100000)"
fill="#000000" stroke="none">
<path d="M0 7680 l0 -7680 5120 0 5120 0 0 7680 0 7680 -5120 0 -5120 0 0
-7680z m5474 2940 c215 -46 444 -141 616 -256 399 -267 657 -650 753 -1119 19
-95 22 -141 22 -330 -1 -249 -16 -356 -81 -553 -179 -549 -632 -988 -1179
-1147 -289 -84 -653 -89 -926 -14 -577 158 -1031 588 -1218 1154 -73 222 -97
390 -88 635 12 323 103 608 281 875 279 418 706 689 1211 770 136 22 478 13
609 -15z m-3424 -4620 c47 -179 89 -332 92 -340 8 -20 3 -33 94 275 42 143 86
290 98 328 l20 67 66 0 66 0 91 -307 c51 -170 95 -320 99 -335 3 -16 9 -28 13
-28 4 0 46 151 95 335 l89 335 79 0 c43 0 78 -1 78 -2 0 -2 -60 -214 -133
-473 l-132 -470 -67 -3 -66 -3 -14 48 c-70 234 -194 623 -199 623 -3 0 -34
-91 -68 -202 -35 -112 -81 -261 -104 -333 l-42 -130 -70 0 -69 0 -133 460
c-73 253 -133 466 -133 473 0 10 20 12 81 10 l82 -3 87 -325z m2390 60 c0
-152 4 -270 9 -270 11 0 94 89 192 205 l71 85 79 0 c43 0 79 -3 79 -8 0 -9
-39 -58 -153 -189 l-88 -103 131 -186 c73 -103 134 -193 137 -201 4 -10 -12
-13 -75 -13 l-79 0 -104 147 c-57 80 -107 151 -111 157 -5 7 -22 -4 -48 -29
l-40 -39 0 -118 0 -118 -70 0 -70 0 0 475 0 475 70 0 70 0 0 -270z m730 65 l0
-205 240 0 240 0 0 205 0 205 70 0 70 0 0 -475 0 -475 -70 0 -70 0 0 205 0
205 -240 0 -240 0 0 -205 0 -205 -75 0 -75 0 0 475 0 475 75 0 75 0 0 -205z
m-1653 -76 c70 -34 105 -70 142 -149 23 -50 26 -67 26 -175 0 -111 -2 -124
-28 -177 -82 -168 -310 -230 -471 -128 -101 65 -152 182 -144 337 6 134 65
239 163 291 89 47 214 48 312 1z m2877 14 c61 -19 137 -92 169 -160 18 -41 22
-66 22 -173 0 -107 -3 -132 -21 -171 -102 -220 -418 -255 -558 -62 -49 68 -70
150 -64 260 5 103 30 168 86 226 97 100 220 127 366 80z m1907 1 c53 -17 115
-72 135 -120 25 -60 22 -64 -54 -64 -64 0 -70 2 -80 26 -16 35 -75 57 -135 51
-61 -5 -101 -34 -105 -75 -4 -42 19 -55 151 -86 189 -45 247 -93 247 -206 0
-91 -40 -149 -135 -192 -72 -33 -219 -32 -287 1 -72 35 -128 106 -128 162 0
17 7 19 63 19 58 0 65 -2 85 -29 27 -37 80 -54 147 -49 68 6 105 29 105 67 0
42 -24 57 -150 91 -178 48 -232 91 -246 192 -24 171 173 279 387 212z m-4334
-39 c1 -27 2 -54 2 -60 1 -5 13 10 28 33 33 50 91 82 152 82 l42 0 -3 -62 -3
-63 -51 -6 c-68 -9 -111 -35 -137 -84 -20 -37 -22 -57 -25 -262 l-3 -223 -70
0 -69 0 0 350 0 351 68 -3 67 -3 2 -50z m2895 -187 c4 -270 9 -293 70 -324 40
-21 119 -14 156 13 57 42 62 66 62 321 l0 232 70 0 70 0 0 -350 0 -350 -70 0
-70 0 0 54 0 53 -48 -47 c-55 -56 -111 -75 -181 -65 -88 13 -144 55 -180 135
-19 42 -21 65 -21 308 l0 262 69 0 69 0 4 -242z m750 180 l3 -62 28 43 c32 49
91 80 150 81 l38 0 -3 -62 -3 -63 -48 -7 c-61 -8 -106 -35 -132 -78 -18 -32
-20 -55 -23 -262 l-3 -228 -75 0 -74 0 0 343 c0 189 3 347 7 350 3 4 35 7 69
7 l63 0 3 -62z"/>
<path d="M4980 10499 c-428 -39 -838 -256 -1104 -583 -192 -236 -314 -518
-347 -805 -16 -135 -6 -401 21 -524 193 -904 1072 -1468 1946 -1247 608 153
1057 621 1196 1247 19 84 22 130 23 318 0 191 -3 235 -23 333 -61 304 -203
565 -431 793 -218 218 -458 355 -746 427 -159 40 -370 56 -535 41z m190 -431
c20 -21 20 -32 20 -571 l0 -550 302 -304 c167 -167 306 -312 310 -322 9 -25
-12 -64 -45 -79 -22 -11 -31 -10 -54 2 -15 8 -168 155 -339 328 l-312 313 -7
55 c-3 30 -5 292 -3 581 3 502 4 528 22 548 26 28 79 28 106 -1z"/>
<path d="M3306 5950 c-41 -13 -83 -56 -102 -106 -23 -60 -17 -204 12 -259 59
-115 243 -112 302 5 28 55 31 198 6 258 -37 91 -122 130 -218 102z"/>
<path d="M6206 5950 c-41 -13 -83 -57 -102 -106 -25 -66 -16 -217 15 -268 67
-108 243 -98 300 17 20 41 24 63 23 139 -1 146 -49 213 -159 223 -26 2 -61 0
-77 -5z"/>
</g>
</svg>
