<?xml version="1.0" standalone="no"?>
<!DOCTYPE svg PUBLIC "-//W3C//DTD SVG 20010904//EN"
 "http://www.w3.org/TR/2001/REC-SVG-20010904/DTD/svg10.dtd">
<svg version="1.0" xmlns="http://www.w3.org/2000/svg"
 width="1024.000000pt" height="1024.000000pt" viewBox="0 0 1024.000000 1024.000000"
 preserveAspectRatio="xMidYMid meet">

<g transform="translate(0.000000,1024.000000) scale(0.100000,-0.100000)"
fill="#000000" stroke="none">
<path d="M0 5120 l0 -5120 5120 0 5120 0 0 5120 0 5120 -5120 0 -5120 0 0
-5120z m5426 3219 c283 -28 596 -104 864 -211 531 -211 1073 -631 1426 -1105
282 -378 498 -888 579 -1366 63 -375 54 -790 -26 -1204 -52 -270 -135 -504
-278 -793 -158 -318 -347 -577 -626 -856 -544 -546 -1280 -854 -2145 -899
-315 -16 -755 52 -1130 175 -207 68 -334 120 -489 202 -280 147 -459 276 -657
473 -598 596 -921 1227 -1016 1985 -17 140 -17 649 0 790 58 467 248 960 537
1395 120 180 200 279 355 439 384 396 865 689 1409 855 191 59 385 96 651 124
81 9 445 6 546 -4z"/>
<path d="M4900 7813 c-560 -44 -1160 -309 -1602 -710 -468 -424 -777 -1018
-864 -1663 -21 -151 -23 -489 -5 -635 62 -503 252 -973 536 -1325 465 -578
1037 -917 1760 -1042 113 -19 166 -22 410 -23 248 0 294 3 405 23 919 166
1612 676 2016 1483 147 293 234 579 275 904 16 129 16 491 0 620 -38 299 -116
546 -273 859 -117 233 -245 414 -452 639 -459 499 -1075 805 -1741 867 -102 9
-361 11 -465 3z m351 -242 c18 -22 19 -42 19 -292 l0 -269 -27 -17 c-20 -13
-52 -19 -118 -21 -76 -2 -95 0 -121 17 -43 26 -47 62 -39 341 7 247 9 255 69
263 17 3 69 4 114 3 75 -1 86 -3 103 -25z m-1284 -965 c46 -24 213 -201 1012
-1073 l103 -113 47 0 c47 0 51 3 307 211 509 415 600 489 713 574 l115 87 57
-4 c108 -8 187 -89 208 -214 18 -101 33 -85 -449 -479 -168 -137 -370 -303
-450 -368 l-145 -119 -7 -74 c-4 -41 -16 -94 -27 -118 -41 -95 -147 -167 -277
-189 -119 -20 -249 33 -344 140 -50 57 -74 128 -75 220 l0 72 -120 123 c-159
163 -749 797 -841 905 -116 135 -132 183 -94 290 45 128 162 184 267 129z
m-766 -1362 c21 -23 24 -36 27 -125 4 -98 4 -99 -25 -128 -40 -39 -73 -43
-335 -39 -159 2 -220 6 -230 16 -19 19 -30 196 -15 241 18 55 45 60 318 60
l236 1 24 -26z m4337 17 c80 -11 86 -23 90 -150 3 -99 2 -111 -16 -129 -27
-27 -99 -36 -317 -36 -262 -1 -295 18 -295 171 1 85 13 118 51 139 27 15 391
19 487 5z m-2349 -1982 c89 -19 89 -17 84 -320 -2 -151 -8 -270 -14 -281 -6
-10 -21 -23 -35 -28 -37 -15 -160 -12 -197 3 -60 26 -62 31 -63 241 -1 105 1
229 4 275 5 80 6 84 36 102 36 22 108 25 185 8z"/>
<path d="M5262 3185 c0 -16 2 -22 5 -12 2 9 2 23 0 30 -3 6 -5 -1 -5 -18z"/>
</g>
</svg>
